<mxfile host="Electron" modified="2024-02-10T11:59:51.059Z" agent="Mozilla/5.0 (X11; Linux x86_64) AppleWebKit/537.36 (KHTML, like Gecko) draw.io/23.0.2 Chrome/120.0.6099.109 Electron/28.1.0 Safari/537.36" etag="01p8sTQO3d7posrREPSk" version="23.0.2" type="device">
  <diagram name="Page-1" id="mlNaame3dPTzkx42rLjh">
    <mxGraphModel dx="2049" dy="1204" grid="1" gridSize="10" guides="1" tooltips="1" connect="1" arrows="1" fold="1" page="1" pageScale="1" pageWidth="1169" pageHeight="827" math="0" shadow="0">
      <root>
        <mxCell id="0" />
        <mxCell id="1" parent="0" />
        <mxCell id="L3b0b9CqX7uJdZbYcvF_-2" value="" style="rounded=0;whiteSpace=wrap;html=1;" parent="1" vertex="1">
          <mxGeometry x="170" y="50" width="120" height="160" as="geometry" />
        </mxCell>
        <mxCell id="L3b0b9CqX7uJdZbYcvF_-3" value="Oscilloscope" style="ellipse;whiteSpace=wrap;html=1;aspect=fixed;" parent="1" vertex="1">
          <mxGeometry x="190" y="70" width="80" height="80" as="geometry" />
        </mxCell>
        <mxCell id="L3b0b9CqX7uJdZbYcvF_-4" value="X" style="text;html=1;strokeColor=none;fillColor=none;align=center;verticalAlign=middle;whiteSpace=wrap;rounded=0;" parent="1" vertex="1">
          <mxGeometry x="170" y="180" width="60" height="30" as="geometry" />
        </mxCell>
        <mxCell id="L3b0b9CqX7uJdZbYcvF_-5" value="Y" style="text;html=1;strokeColor=none;fillColor=none;align=center;verticalAlign=middle;whiteSpace=wrap;rounded=0;" parent="1" vertex="1">
          <mxGeometry x="230" y="180" width="60" height="30" as="geometry" />
        </mxCell>
        <mxCell id="L3b0b9CqX7uJdZbYcvF_-10" style="edgeStyle=orthogonalEdgeStyle;rounded=0;orthogonalLoop=1;jettySize=auto;html=1;entryX=0.5;entryY=1;entryDx=0;entryDy=0;" parent="1" source="L3b0b9CqX7uJdZbYcvF_-8" target="L3b0b9CqX7uJdZbYcvF_-5" edge="1">
          <mxGeometry relative="1" as="geometry" />
        </mxCell>
        <mxCell id="L3b0b9CqX7uJdZbYcvF_-8" value="&lt;div&gt;16bit&lt;/div&gt;&lt;div&gt;2R-Ladder-Dac&lt;/div&gt;" style="verticalLabelPosition=bottom;shadow=0;dashed=0;align=center;html=1;verticalAlign=top;shape=mxgraph.electrical.abstract.dac;rotation=0;flipH=1;direction=east;" parent="1" vertex="1">
          <mxGeometry x="300" y="230" width="90" height="60" as="geometry" />
        </mxCell>
        <mxCell id="L3b0b9CqX7uJdZbYcvF_-11" style="edgeStyle=orthogonalEdgeStyle;rounded=0;orthogonalLoop=1;jettySize=auto;html=1;entryX=0.5;entryY=1;entryDx=0;entryDy=0;" parent="1" source="L3b0b9CqX7uJdZbYcvF_-9" target="L3b0b9CqX7uJdZbYcvF_-4" edge="1">
          <mxGeometry relative="1" as="geometry" />
        </mxCell>
        <mxCell id="L3b0b9CqX7uJdZbYcvF_-9" value="&lt;div&gt;16bit&amp;nbsp;&lt;/div&gt;&lt;div&gt;2R-Ladder-Dac&lt;/div&gt;" style="verticalLabelPosition=bottom;shadow=0;dashed=0;align=center;html=1;verticalAlign=top;shape=mxgraph.electrical.abstract.dac;rotation=0;flipH=1;direction=east;" parent="1" vertex="1">
          <mxGeometry x="300" y="460" width="90" height="60" as="geometry" />
        </mxCell>
        <mxCell id="L3b0b9CqX7uJdZbYcvF_-50" style="edgeStyle=orthogonalEdgeStyle;rounded=0;orthogonalLoop=1;jettySize=auto;html=1;exitX=0.5;exitY=0;exitDx=0;exitDy=0;entryX=0;entryY=0.5;entryDx=0;entryDy=0;strokeColor=#A1A1A1;endArrow=none;endFill=0;" parent="1" source="L3b0b9CqX7uJdZbYcvF_-13" target="L3b0b9CqX7uJdZbYcvF_-42" edge="1">
          <mxGeometry relative="1" as="geometry">
            <Array as="points">
              <mxPoint x="900" y="329.95" />
              <mxPoint x="900" y="379.95" />
            </Array>
          </mxGeometry>
        </mxCell>
        <mxCell id="L3b0b9CqX7uJdZbYcvF_-13" value="&lt;div&gt;Decoder&lt;/div&gt;&lt;div&gt;2:4&lt;br&gt;&lt;/div&gt;" style="shape=trapezoid;perimeter=trapezoidPerimeter;whiteSpace=wrap;html=1;fixedSize=1;direction=south;" parent="1" vertex="1">
          <mxGeometry x="810" y="269.95" width="60" height="120" as="geometry" />
        </mxCell>
        <mxCell id="L3b0b9CqX7uJdZbYcvF_-46" style="edgeStyle=orthogonalEdgeStyle;rounded=0;orthogonalLoop=1;jettySize=auto;html=1;exitX=0;exitY=0.25;exitDx=0;exitDy=0;exitPerimeter=0;entryX=0;entryY=0.25;entryDx=0;entryDy=0;strokeColor=#00ff00;endArrow=none;endFill=0;" parent="1" source="L3b0b9CqX7uJdZbYcvF_-14" target="L3b0b9CqX7uJdZbYcvF_-42" edge="1">
          <mxGeometry relative="1" as="geometry">
            <Array as="points">
              <mxPoint x="700" y="249.95" />
              <mxPoint x="700" y="209.95" />
              <mxPoint x="900" y="209.95" />
              <mxPoint x="900" y="309.95" />
            </Array>
          </mxGeometry>
        </mxCell>
        <mxCell id="L3b0b9CqX7uJdZbYcvF_-14" value="&lt;div&gt;74HC573&lt;/div&gt;" style="verticalLabelPosition=bottom;shadow=0;dashed=0;align=center;html=1;verticalAlign=top;shape=mxgraph.electrical.logic_gates.d_type_flip-flop;flipH=1;" parent="1" vertex="1">
          <mxGeometry x="580" y="229.95" width="100" height="80" as="geometry" />
        </mxCell>
        <mxCell id="L3b0b9CqX7uJdZbYcvF_-28" style="edgeStyle=orthogonalEdgeStyle;rounded=0;orthogonalLoop=1;jettySize=auto;html=1;exitX=0;exitY=0.25;exitDx=0;exitDy=0;exitPerimeter=0;endArrow=none;endFill=0;strokeColor=#00ff00;startArrow=classic;startFill=1;" parent="1" source="L3b0b9CqX7uJdZbYcvF_-15" edge="1">
          <mxGeometry relative="1" as="geometry">
            <mxPoint x="699.9999999999998" y="350.19137931034487" as="targetPoint" />
          </mxGeometry>
        </mxCell>
        <mxCell id="L3b0b9CqX7uJdZbYcvF_-15" value="74HC573" style="verticalLabelPosition=bottom;shadow=0;dashed=0;align=center;html=1;verticalAlign=top;shape=mxgraph.electrical.logic_gates.d_type_flip-flop;flipH=1;" parent="1" vertex="1">
          <mxGeometry x="580" y="339.95" width="100" height="80" as="geometry" />
        </mxCell>
        <mxCell id="L3b0b9CqX7uJdZbYcvF_-29" style="edgeStyle=orthogonalEdgeStyle;rounded=0;orthogonalLoop=1;jettySize=auto;html=1;exitX=0;exitY=0.25;exitDx=0;exitDy=0;exitPerimeter=0;endArrow=none;endFill=0;strokeColor=#00ff00;startArrow=classic;startFill=1;" parent="1" source="L3b0b9CqX7uJdZbYcvF_-16" edge="1">
          <mxGeometry relative="1" as="geometry">
            <mxPoint x="700" y="470" as="targetPoint" />
          </mxGeometry>
        </mxCell>
        <mxCell id="L3b0b9CqX7uJdZbYcvF_-16" value="&lt;div&gt;74HC573&lt;/div&gt;&lt;div&gt;&lt;br&gt;&lt;/div&gt;" style="verticalLabelPosition=bottom;shadow=0;dashed=0;align=center;html=1;verticalAlign=top;shape=mxgraph.electrical.logic_gates.d_type_flip-flop;flipH=1;" parent="1" vertex="1">
          <mxGeometry x="580" y="449.95" width="100" height="80" as="geometry" />
        </mxCell>
        <mxCell id="L3b0b9CqX7uJdZbYcvF_-27" style="edgeStyle=orthogonalEdgeStyle;rounded=0;orthogonalLoop=1;jettySize=auto;html=1;exitX=0;exitY=0.25;exitDx=0;exitDy=0;exitPerimeter=0;endArrow=classic;endFill=1;entryX=0;entryY=0.25;entryDx=0;entryDy=0;entryPerimeter=0;strokeColor=#00ff00;startArrow=block;startFill=1;jumpStyle=none;jumpSize=5;" parent="1" source="L3b0b9CqX7uJdZbYcvF_-17" target="L3b0b9CqX7uJdZbYcvF_-14" edge="1">
          <mxGeometry relative="1" as="geometry">
            <mxPoint x="709.9999999999998" y="229.94999999999987" as="targetPoint" />
          </mxGeometry>
        </mxCell>
        <mxCell id="L3b0b9CqX7uJdZbYcvF_-30" value="8" style="edgeLabel;html=1;align=center;verticalAlign=middle;resizable=0;points=[];" parent="L3b0b9CqX7uJdZbYcvF_-27" vertex="1" connectable="0">
          <mxGeometry x="0.7762" relative="1" as="geometry">
            <mxPoint y="-43" as="offset" />
          </mxGeometry>
        </mxCell>
        <mxCell id="L3b0b9CqX7uJdZbYcvF_-17" value="74HC573" style="verticalLabelPosition=bottom;shadow=0;dashed=0;align=center;html=1;verticalAlign=top;shape=mxgraph.electrical.logic_gates.d_type_flip-flop;flipH=1;" parent="1" vertex="1">
          <mxGeometry x="580" y="559.95" width="100" height="80" as="geometry" />
        </mxCell>
        <mxCell id="L3b0b9CqX7uJdZbYcvF_-42" value="" style="rounded=0;whiteSpace=wrap;html=1;" parent="1" vertex="1">
          <mxGeometry x="960" y="238.45" width="160" height="280" as="geometry" />
        </mxCell>
        <mxCell id="L3b0b9CqX7uJdZbYcvF_-41" value="" style="shape=image;verticalLabelPosition=bottom;labelBackgroundColor=default;verticalAlign=top;aspect=fixed;imageAspect=0;image=https://upload.wikimedia.org/wikipedia/de/thumb/c/cb/Raspberry_Pi_Logo.svg/570px-Raspberry_Pi_Logo.svg.png;" parent="1" vertex="1">
          <mxGeometry x="1016.26" y="348.45" width="47.49" height="60" as="geometry" />
        </mxCell>
        <mxCell id="L3b0b9CqX7uJdZbYcvF_-49" value="&lt;div&gt;GPIO&lt;/div&gt;&lt;div&gt;11-12&lt;/div&gt;" style="text;html=1;strokeColor=none;fillColor=none;align=center;verticalAlign=middle;whiteSpace=wrap;rounded=0;" parent="1" vertex="1">
          <mxGeometry x="920" y="349.95" width="40" height="35" as="geometry" />
        </mxCell>
        <mxCell id="L3b0b9CqX7uJdZbYcvF_-76" style="edgeStyle=orthogonalEdgeStyle;rounded=0;orthogonalLoop=1;jettySize=auto;html=1;exitX=0;exitY=0.75;exitDx=0;exitDy=0;exitPerimeter=0;startArrow=classic;startFill=1;endArrow=none;endFill=0;entryX=1;entryY=0.5;entryDx=0;entryDy=0;entryPerimeter=0;" parent="1" source="L3b0b9CqX7uJdZbYcvF_-55" target="L3b0b9CqX7uJdZbYcvF_-104" edge="1">
          <mxGeometry relative="1" as="geometry">
            <mxPoint x="555.2173913043478" y="720" as="targetPoint" />
            <Array as="points">
              <mxPoint x="560" y="290" />
              <mxPoint x="560" y="720" />
              <mxPoint x="780" y="720" />
              <mxPoint x="780" y="489" />
            </Array>
          </mxGeometry>
        </mxCell>
        <mxCell id="L3b0b9CqX7uJdZbYcvF_-52" value="&lt;div&gt;GPIO&lt;/div&gt;&lt;div&gt;2-9&lt;br&gt;&lt;/div&gt;" style="text;html=1;strokeColor=none;fillColor=none;align=center;verticalAlign=middle;whiteSpace=wrap;rounded=0;" parent="1" vertex="1">
          <mxGeometry x="920" y="279.95" width="40" height="30" as="geometry" />
        </mxCell>
        <mxCell id="L3b0b9CqX7uJdZbYcvF_-55" value="&lt;div&gt;74HC573&lt;/div&gt;" style="verticalLabelPosition=bottom;shadow=0;dashed=0;align=center;html=1;verticalAlign=top;shape=mxgraph.electrical.logic_gates.d_type_flip-flop;flipH=1;" parent="1" vertex="1">
          <mxGeometry x="440" y="230" width="100" height="80" as="geometry" />
        </mxCell>
        <mxCell id="L3b0b9CqX7uJdZbYcvF_-79" style="edgeStyle=orthogonalEdgeStyle;rounded=0;orthogonalLoop=1;jettySize=auto;html=1;exitX=0;exitY=0.75;exitDx=0;exitDy=0;exitPerimeter=0;endArrow=none;endFill=0;startArrow=classic;startFill=1;" parent="1" source="L3b0b9CqX7uJdZbYcvF_-56" edge="1">
          <mxGeometry relative="1" as="geometry">
            <mxPoint x="560" y="400" as="targetPoint" />
          </mxGeometry>
        </mxCell>
        <mxCell id="L3b0b9CqX7uJdZbYcvF_-56" value="&lt;div&gt;74HC573&lt;/div&gt;" style="verticalLabelPosition=bottom;shadow=0;dashed=0;align=center;html=1;verticalAlign=top;shape=mxgraph.electrical.logic_gates.d_type_flip-flop;flipH=1;" parent="1" vertex="1">
          <mxGeometry x="440" y="340" width="100" height="80" as="geometry" />
        </mxCell>
        <mxCell id="L3b0b9CqX7uJdZbYcvF_-78" style="edgeStyle=orthogonalEdgeStyle;rounded=0;orthogonalLoop=1;jettySize=auto;html=1;exitX=0;exitY=0.75;exitDx=0;exitDy=0;exitPerimeter=0;endArrow=none;endFill=0;startArrow=classic;startFill=1;" parent="1" source="L3b0b9CqX7uJdZbYcvF_-57" edge="1">
          <mxGeometry relative="1" as="geometry">
            <mxPoint x="560" y="510" as="targetPoint" />
          </mxGeometry>
        </mxCell>
        <mxCell id="L3b0b9CqX7uJdZbYcvF_-57" value="&lt;div&gt;74HC573&lt;/div&gt;" style="verticalLabelPosition=bottom;shadow=0;dashed=0;align=center;html=1;verticalAlign=top;shape=mxgraph.electrical.logic_gates.d_type_flip-flop;flipH=1;" parent="1" vertex="1">
          <mxGeometry x="440" y="450" width="100" height="80" as="geometry" />
        </mxCell>
        <mxCell id="L3b0b9CqX7uJdZbYcvF_-77" style="edgeStyle=orthogonalEdgeStyle;rounded=0;orthogonalLoop=1;jettySize=auto;html=1;exitX=0;exitY=0.75;exitDx=0;exitDy=0;exitPerimeter=0;startArrow=classic;startFill=1;endArrow=none;endFill=0;" parent="1" source="L3b0b9CqX7uJdZbYcvF_-58" edge="1">
          <mxGeometry relative="1" as="geometry">
            <mxPoint x="560" y="620" as="targetPoint" />
          </mxGeometry>
        </mxCell>
        <mxCell id="L3b0b9CqX7uJdZbYcvF_-58" value="&lt;div&gt;74HC573&lt;/div&gt;" style="verticalLabelPosition=bottom;shadow=0;dashed=0;align=center;html=1;verticalAlign=top;shape=mxgraph.electrical.logic_gates.d_type_flip-flop;flipH=1;" parent="1" vertex="1">
          <mxGeometry x="440" y="560" width="100" height="80" as="geometry" />
        </mxCell>
        <mxCell id="L3b0b9CqX7uJdZbYcvF_-59" style="edgeStyle=orthogonalEdgeStyle;rounded=0;orthogonalLoop=1;jettySize=auto;html=1;exitX=1;exitY=0.25;exitDx=0;exitDy=0;exitPerimeter=0;entryX=0.022;entryY=0.338;entryDx=0;entryDy=0;entryPerimeter=0;strokeColor=#00ff00;" parent="1" source="L3b0b9CqX7uJdZbYcvF_-55" target="L3b0b9CqX7uJdZbYcvF_-8" edge="1">
          <mxGeometry relative="1" as="geometry" />
        </mxCell>
        <mxCell id="L3b0b9CqX7uJdZbYcvF_-73" value="&lt;div&gt;8&lt;/div&gt;" style="edgeLabel;html=1;align=center;verticalAlign=middle;resizable=0;points=[];" parent="L3b0b9CqX7uJdZbYcvF_-59" vertex="1" connectable="0">
          <mxGeometry x="-0.2654" relative="1" as="geometry">
            <mxPoint as="offset" />
          </mxGeometry>
        </mxCell>
        <mxCell id="L3b0b9CqX7uJdZbYcvF_-61" style="edgeStyle=orthogonalEdgeStyle;rounded=0;orthogonalLoop=1;jettySize=auto;html=1;exitX=1;exitY=0.25;exitDx=0;exitDy=0;exitPerimeter=0;entryX=-0.002;entryY=0.725;entryDx=0;entryDy=0;entryPerimeter=0;strokeColor=#00ff00;" parent="1" source="L3b0b9CqX7uJdZbYcvF_-56" target="L3b0b9CqX7uJdZbYcvF_-8" edge="1">
          <mxGeometry relative="1" as="geometry">
            <Array as="points">
              <mxPoint x="420" y="360" />
              <mxPoint x="420" y="274" />
            </Array>
          </mxGeometry>
        </mxCell>
        <mxCell id="L3b0b9CqX7uJdZbYcvF_-62" style="edgeStyle=orthogonalEdgeStyle;rounded=0;orthogonalLoop=1;jettySize=auto;html=1;exitX=1;exitY=0.25;exitDx=0;exitDy=0;exitPerimeter=0;entryX=0.006;entryY=0.171;entryDx=0;entryDy=0;entryPerimeter=0;strokeColor=#00ff00;" parent="1" source="L3b0b9CqX7uJdZbYcvF_-57" target="L3b0b9CqX7uJdZbYcvF_-9" edge="1">
          <mxGeometry relative="1" as="geometry" />
        </mxCell>
        <mxCell id="L3b0b9CqX7uJdZbYcvF_-74" value="&lt;div&gt;8&lt;/div&gt;" style="edgeLabel;html=1;align=center;verticalAlign=middle;resizable=0;points=[];" parent="L3b0b9CqX7uJdZbYcvF_-62" vertex="1" connectable="0">
          <mxGeometry x="-0.2039" y="1" relative="1" as="geometry">
            <mxPoint as="offset" />
          </mxGeometry>
        </mxCell>
        <mxCell id="L3b0b9CqX7uJdZbYcvF_-63" style="edgeStyle=orthogonalEdgeStyle;rounded=0;orthogonalLoop=1;jettySize=auto;html=1;exitX=1;exitY=0.25;exitDx=0;exitDy=0;exitPerimeter=0;entryX=0.01;entryY=0.743;entryDx=0;entryDy=0;entryPerimeter=0;strokeColor=#00ff00;" parent="1" source="L3b0b9CqX7uJdZbYcvF_-58" target="L3b0b9CqX7uJdZbYcvF_-9" edge="1">
          <mxGeometry relative="1" as="geometry" />
        </mxCell>
        <mxCell id="L3b0b9CqX7uJdZbYcvF_-75" value="&lt;div&gt;8&lt;/div&gt;" style="edgeLabel;html=1;align=center;verticalAlign=middle;resizable=0;points=[];" parent="L3b0b9CqX7uJdZbYcvF_-63" vertex="1" connectable="0">
          <mxGeometry x="0.0439" y="-1" relative="1" as="geometry">
            <mxPoint as="offset" />
          </mxGeometry>
        </mxCell>
        <mxCell id="L3b0b9CqX7uJdZbYcvF_-64" style="edgeStyle=orthogonalEdgeStyle;rounded=0;orthogonalLoop=1;jettySize=auto;html=1;exitX=1;exitY=0.25;exitDx=0;exitDy=0;exitPerimeter=0;entryX=0;entryY=0.25;entryDx=0;entryDy=0;entryPerimeter=0;strokeColor=#00ff00;jumpStyle=arc;" parent="1" source="L3b0b9CqX7uJdZbYcvF_-17" target="L3b0b9CqX7uJdZbYcvF_-58" edge="1">
          <mxGeometry relative="1" as="geometry" />
        </mxCell>
        <mxCell id="L3b0b9CqX7uJdZbYcvF_-65" style="edgeStyle=orthogonalEdgeStyle;rounded=0;orthogonalLoop=1;jettySize=auto;html=1;exitX=1;exitY=0.25;exitDx=0;exitDy=0;exitPerimeter=0;entryX=0;entryY=0.25;entryDx=0;entryDy=0;entryPerimeter=0;strokeColor=#00ff00;jumpStyle=arc;" parent="1" source="L3b0b9CqX7uJdZbYcvF_-16" target="L3b0b9CqX7uJdZbYcvF_-57" edge="1">
          <mxGeometry relative="1" as="geometry" />
        </mxCell>
        <mxCell id="L3b0b9CqX7uJdZbYcvF_-66" style="edgeStyle=orthogonalEdgeStyle;rounded=0;orthogonalLoop=1;jettySize=auto;html=1;exitX=1;exitY=0.25;exitDx=0;exitDy=0;exitPerimeter=0;entryX=0;entryY=0.25;entryDx=0;entryDy=0;entryPerimeter=0;strokeColor=#00ff00;jumpStyle=arc;" parent="1" source="L3b0b9CqX7uJdZbYcvF_-15" target="L3b0b9CqX7uJdZbYcvF_-56" edge="1">
          <mxGeometry relative="1" as="geometry" />
        </mxCell>
        <mxCell id="L3b0b9CqX7uJdZbYcvF_-67" style="edgeStyle=orthogonalEdgeStyle;rounded=0;orthogonalLoop=1;jettySize=auto;html=1;exitX=1;exitY=0.25;exitDx=0;exitDy=0;exitPerimeter=0;entryX=0;entryY=0.25;entryDx=0;entryDy=0;entryPerimeter=0;strokeColor=#00ff00;jumpStyle=arc;" parent="1" source="L3b0b9CqX7uJdZbYcvF_-14" target="L3b0b9CqX7uJdZbYcvF_-55" edge="1">
          <mxGeometry relative="1" as="geometry" />
        </mxCell>
        <mxCell id="L3b0b9CqX7uJdZbYcvF_-68" value="8" style="edgeLabel;html=1;align=center;verticalAlign=middle;resizable=0;points=[];" parent="1" vertex="1" connectable="0">
          <mxGeometry x="710" y="238.45" as="geometry">
            <mxPoint x="-272" y="80" as="offset" />
          </mxGeometry>
        </mxCell>
        <mxCell id="L3b0b9CqX7uJdZbYcvF_-80" value="&lt;div&gt;GPIO&lt;/div&gt;&lt;div&gt;13&lt;br&gt;&lt;/div&gt;" style="text;html=1;strokeColor=none;fillColor=none;align=center;verticalAlign=middle;whiteSpace=wrap;rounded=0;" parent="1" vertex="1">
          <mxGeometry x="930" y="460" width="30" height="35" as="geometry" />
        </mxCell>
        <mxCell id="L3b0b9CqX7uJdZbYcvF_-81" value="Master LE" style="text;html=1;strokeColor=none;fillColor=none;align=center;verticalAlign=middle;whiteSpace=wrap;rounded=0;" parent="1" vertex="1">
          <mxGeometry x="960" y="476.55" width="70" height="25" as="geometry" />
        </mxCell>
        <mxCell id="L3b0b9CqX7uJdZbYcvF_-82" value="Sel" style="text;html=1;strokeColor=none;fillColor=none;align=center;verticalAlign=middle;whiteSpace=wrap;rounded=0;" parent="1" vertex="1">
          <mxGeometry x="960" y="365.95" width="30" height="25" as="geometry" />
        </mxCell>
        <mxCell id="L3b0b9CqX7uJdZbYcvF_-83" value="Data" style="text;html=1;strokeColor=none;fillColor=none;align=center;verticalAlign=middle;whiteSpace=wrap;rounded=0;" parent="1" vertex="1">
          <mxGeometry x="960" y="300" width="40" height="25" as="geometry" />
        </mxCell>
        <mxCell id="L3b0b9CqX7uJdZbYcvF_-86" style="edgeStyle=orthogonalEdgeStyle;rounded=0;orthogonalLoop=1;jettySize=auto;html=1;exitX=1;exitY=0.5;exitDx=0;exitDy=0;entryX=1;entryY=0.5;entryDx=0;entryDy=0;endArrow=circle;endFill=0;exitPerimeter=0;" parent="1" source="L3b0b9CqX7uJdZbYcvF_-111" target="L3b0b9CqX7uJdZbYcvF_-13" edge="1">
          <mxGeometry relative="1" as="geometry">
            <Array as="points">
              <mxPoint x="840" y="421" />
            </Array>
          </mxGeometry>
        </mxCell>
        <mxCell id="L3b0b9CqX7uJdZbYcvF_-84" value="Pre LE" style="text;html=1;strokeColor=none;fillColor=none;align=center;verticalAlign=middle;whiteSpace=wrap;rounded=0;" parent="1" vertex="1">
          <mxGeometry x="960" y="408.45" width="50" height="25" as="geometry" />
        </mxCell>
        <mxCell id="L3b0b9CqX7uJdZbYcvF_-88" value="&lt;h2&gt;RPi Pico&lt;/h2&gt;" style="text;html=1;strokeColor=none;fillColor=none;align=center;verticalAlign=middle;whiteSpace=wrap;rounded=0;" parent="1" vertex="1">
          <mxGeometry x="990" y="245" width="100" height="30" as="geometry" />
        </mxCell>
        <mxCell id="L3b0b9CqX7uJdZbYcvF_-89" value="" style="verticalLabelPosition=bottom;shadow=0;dashed=0;align=center;html=1;verticalAlign=top;shape=mxgraph.electrical.logic_gates.inverter_2;flipH=1;" parent="1" vertex="1">
          <mxGeometry x="750" y="329.9" width="40" height="23.1" as="geometry" />
        </mxCell>
        <mxCell id="L3b0b9CqX7uJdZbYcvF_-90" value="" style="verticalLabelPosition=bottom;shadow=0;dashed=0;align=center;html=1;verticalAlign=top;shape=mxgraph.electrical.logic_gates.inverter_2;flipH=1;" parent="1" vertex="1">
          <mxGeometry x="750" y="359.95" width="40" height="23.1" as="geometry" />
        </mxCell>
        <mxCell id="L3b0b9CqX7uJdZbYcvF_-91" value="" style="verticalLabelPosition=bottom;shadow=0;dashed=0;align=center;html=1;verticalAlign=top;shape=mxgraph.electrical.logic_gates.inverter_2;flipH=1;" parent="1" vertex="1">
          <mxGeometry x="750" y="301.5" width="40" height="23.1" as="geometry" />
        </mxCell>
        <mxCell id="L3b0b9CqX7uJdZbYcvF_-92" value="" style="verticalLabelPosition=bottom;shadow=0;dashed=0;align=center;html=1;verticalAlign=top;shape=mxgraph.electrical.logic_gates.inverter_2;flipH=1;" parent="1" vertex="1">
          <mxGeometry x="750" y="269.95" width="40" height="23.1" as="geometry" />
        </mxCell>
        <mxCell id="L3b0b9CqX7uJdZbYcvF_-93" style="edgeStyle=orthogonalEdgeStyle;rounded=0;orthogonalLoop=1;jettySize=auto;html=1;exitX=0;exitY=0.5;exitDx=0;exitDy=0;exitPerimeter=0;entryX=0.096;entryY=1;entryDx=0;entryDy=0;entryPerimeter=0;endArrow=circle;endFill=0;" parent="1" source="L3b0b9CqX7uJdZbYcvF_-92" target="L3b0b9CqX7uJdZbYcvF_-13" edge="1">
          <mxGeometry relative="1" as="geometry" />
        </mxCell>
        <mxCell id="L3b0b9CqX7uJdZbYcvF_-95" style="edgeStyle=orthogonalEdgeStyle;rounded=0;orthogonalLoop=1;jettySize=auto;html=1;exitX=0;exitY=0.5;exitDx=0;exitDy=0;exitPerimeter=0;entryX=0.359;entryY=1;entryDx=0;entryDy=0;entryPerimeter=0;endArrow=circle;endFill=0;" parent="1" source="L3b0b9CqX7uJdZbYcvF_-91" target="L3b0b9CqX7uJdZbYcvF_-13" edge="1">
          <mxGeometry relative="1" as="geometry" />
        </mxCell>
        <mxCell id="L3b0b9CqX7uJdZbYcvF_-96" style="edgeStyle=orthogonalEdgeStyle;rounded=0;orthogonalLoop=1;jettySize=auto;html=1;exitX=0;exitY=0.5;exitDx=0;exitDy=0;exitPerimeter=0;entryX=0.596;entryY=1;entryDx=0;entryDy=0;entryPerimeter=0;endArrow=circle;endFill=0;" parent="1" source="L3b0b9CqX7uJdZbYcvF_-89" target="L3b0b9CqX7uJdZbYcvF_-13" edge="1">
          <mxGeometry relative="1" as="geometry" />
        </mxCell>
        <mxCell id="L3b0b9CqX7uJdZbYcvF_-97" style="edgeStyle=orthogonalEdgeStyle;rounded=0;orthogonalLoop=1;jettySize=auto;html=1;exitX=0;exitY=0.5;exitDx=0;exitDy=0;exitPerimeter=0;entryX=0.847;entryY=1;entryDx=0;entryDy=0;entryPerimeter=0;endArrow=circle;endFill=0;" parent="1" source="L3b0b9CqX7uJdZbYcvF_-90" target="L3b0b9CqX7uJdZbYcvF_-13" edge="1">
          <mxGeometry relative="1" as="geometry" />
        </mxCell>
        <mxCell id="L3b0b9CqX7uJdZbYcvF_-98" style="edgeStyle=orthogonalEdgeStyle;rounded=0;orthogonalLoop=1;jettySize=auto;html=1;exitX=1;exitY=0.5;exitDx=0;exitDy=0;exitPerimeter=0;entryX=0;entryY=0.75;entryDx=0;entryDy=0;entryPerimeter=0;jumpStyle=arc;" parent="1" source="L3b0b9CqX7uJdZbYcvF_-92" target="L3b0b9CqX7uJdZbYcvF_-14" edge="1">
          <mxGeometry relative="1" as="geometry" />
        </mxCell>
        <mxCell id="L3b0b9CqX7uJdZbYcvF_-99" style="edgeStyle=orthogonalEdgeStyle;rounded=0;orthogonalLoop=1;jettySize=auto;html=1;exitX=1;exitY=0.5;exitDx=0;exitDy=0;exitPerimeter=0;entryX=0;entryY=0.75;entryDx=0;entryDy=0;entryPerimeter=0;jumpStyle=arc;" parent="1" source="L3b0b9CqX7uJdZbYcvF_-91" target="L3b0b9CqX7uJdZbYcvF_-15" edge="1">
          <mxGeometry relative="1" as="geometry">
            <Array as="points">
              <mxPoint x="720" y="313" />
              <mxPoint x="720" y="400" />
            </Array>
          </mxGeometry>
        </mxCell>
        <mxCell id="L3b0b9CqX7uJdZbYcvF_-100" style="edgeStyle=orthogonalEdgeStyle;rounded=0;orthogonalLoop=1;jettySize=auto;html=1;exitX=1;exitY=0.5;exitDx=0;exitDy=0;exitPerimeter=0;entryX=0;entryY=0.75;entryDx=0;entryDy=0;entryPerimeter=0;jumpStyle=arc;" parent="1" source="L3b0b9CqX7uJdZbYcvF_-89" target="L3b0b9CqX7uJdZbYcvF_-16" edge="1">
          <mxGeometry relative="1" as="geometry">
            <Array as="points">
              <mxPoint x="730" y="342" />
              <mxPoint x="730" y="510" />
            </Array>
          </mxGeometry>
        </mxCell>
        <mxCell id="L3b0b9CqX7uJdZbYcvF_-101" style="edgeStyle=orthogonalEdgeStyle;rounded=0;orthogonalLoop=1;jettySize=auto;html=1;exitX=1;exitY=0.5;exitDx=0;exitDy=0;exitPerimeter=0;entryX=0;entryY=0.75;entryDx=0;entryDy=0;entryPerimeter=0;" parent="1" source="L3b0b9CqX7uJdZbYcvF_-90" target="L3b0b9CqX7uJdZbYcvF_-17" edge="1">
          <mxGeometry relative="1" as="geometry">
            <Array as="points">
              <mxPoint x="740" y="372" />
              <mxPoint x="740" y="620" />
            </Array>
          </mxGeometry>
        </mxCell>
        <mxCell id="L3b0b9CqX7uJdZbYcvF_-102" value="74HC540" style="text;html=1;strokeColor=none;fillColor=none;align=center;verticalAlign=middle;whiteSpace=wrap;rounded=0;" parent="1" vertex="1">
          <mxGeometry x="1010" y="756.55" width="60" height="30" as="geometry" />
        </mxCell>
        <mxCell id="L3b0b9CqX7uJdZbYcvF_-104" value="" style="verticalLabelPosition=bottom;shadow=0;dashed=0;align=center;html=1;verticalAlign=top;shape=mxgraph.electrical.logic_gates.inverter_2;flipH=1;" parent="1" vertex="1">
          <mxGeometry x="800" y="477.5" width="40" height="23.1" as="geometry" />
        </mxCell>
        <mxCell id="L3b0b9CqX7uJdZbYcvF_-106" style="edgeStyle=orthogonalEdgeStyle;rounded=0;orthogonalLoop=1;jettySize=auto;html=1;entryX=0;entryY=0.5;entryDx=0;entryDy=0;endArrow=none;endFill=0;startArrow=classic;startFill=1;" parent="1" source="L3b0b9CqX7uJdZbYcvF_-105" target="L3b0b9CqX7uJdZbYcvF_-81" edge="1">
          <mxGeometry relative="1" as="geometry">
            <Array as="points">
              <mxPoint x="880" y="490" />
            </Array>
          </mxGeometry>
        </mxCell>
        <mxCell id="L3b0b9CqX7uJdZbYcvF_-105" value="" style="verticalLabelPosition=bottom;shadow=0;dashed=0;align=center;html=1;verticalAlign=top;shape=mxgraph.electrical.logic_gates.inverter_2;flipH=1;" parent="1" vertex="1">
          <mxGeometry x="850" y="477.5" width="40" height="23.1" as="geometry" />
        </mxCell>
        <mxCell id="L3b0b9CqX7uJdZbYcvF_-108" value="" style="verticalLabelPosition=bottom;shadow=0;dashed=0;align=center;html=1;verticalAlign=top;shape=mxgraph.electrical.logic_gates.inverter_2;flipH=1;" parent="1" vertex="1">
          <mxGeometry x="1080" y="760" width="40" height="23.1" as="geometry" />
        </mxCell>
        <mxCell id="L3b0b9CqX7uJdZbYcvF_-113" style="edgeStyle=orthogonalEdgeStyle;rounded=0;orthogonalLoop=1;jettySize=auto;html=1;entryX=0;entryY=0.5;entryDx=0;entryDy=0;endArrow=none;endFill=0;startArrow=classic;startFill=1;" parent="1" source="L3b0b9CqX7uJdZbYcvF_-111" target="L3b0b9CqX7uJdZbYcvF_-84" edge="1">
          <mxGeometry relative="1" as="geometry" />
        </mxCell>
        <mxCell id="L3b0b9CqX7uJdZbYcvF_-111" value="" style="verticalLabelPosition=bottom;shadow=0;dashed=0;align=center;html=1;verticalAlign=top;shape=mxgraph.electrical.logic_gates.inverter_2;flipH=1;" parent="1" vertex="1">
          <mxGeometry x="860" y="409.4" width="40" height="23.1" as="geometry" />
        </mxCell>
        <mxCell id="L3b0b9CqX7uJdZbYcvF_-114" style="edgeStyle=orthogonalEdgeStyle;rounded=0;orthogonalLoop=1;jettySize=auto;html=1;exitX=0;exitY=0.5;exitDx=0;exitDy=0;exitPerimeter=0;entryX=1;entryY=0.5;entryDx=0;entryDy=0;entryPerimeter=0;endArrow=none;endFill=0;" parent="1" source="L3b0b9CqX7uJdZbYcvF_-104" target="L3b0b9CqX7uJdZbYcvF_-105" edge="1">
          <mxGeometry relative="1" as="geometry" />
        </mxCell>
        <mxCell id="L3b0b9CqX7uJdZbYcvF_-115" value="&lt;div&gt;GPIO&lt;/div&gt;&lt;div&gt;10&lt;/div&gt;" style="text;html=1;strokeColor=none;fillColor=none;align=center;verticalAlign=middle;whiteSpace=wrap;rounded=0;" parent="1" vertex="1">
          <mxGeometry x="920" y="395" width="40" height="25" as="geometry" />
        </mxCell>
        <mxCell id="icH5mZn37ks5s2nZ3BOA-3" value="74HC139" style="text;html=1;strokeColor=none;fillColor=none;align=center;verticalAlign=middle;whiteSpace=wrap;rounded=0;" vertex="1" parent="1">
          <mxGeometry x="810" y="254.95" width="60" height="20.05" as="geometry" />
        </mxCell>
      </root>
    </mxGraphModel>
  </diagram>
</mxfile>
